<mxfile host="Electron" modified="2024-07-04T20:57:54.636Z" agent="Mozilla/5.0 (Windows NT 10.0; Win64; x64) AppleWebKit/537.36 (KHTML, like Gecko) draw.io/24.5.3 Chrome/124.0.6367.207 Electron/30.0.6 Safari/537.36" etag="jK01rEPQ8Chgc6giEU5M" version="24.5.3" type="device">
  <diagram name="Page-1" id="271-cqc7lN5esvMewJTl">
    <mxGraphModel dx="784" dy="706" grid="1" gridSize="10" guides="1" tooltips="1" connect="1" arrows="1" fold="1" page="0" pageScale="1" pageWidth="827" pageHeight="1169" math="0" shadow="0">
      <root>
        <mxCell id="0" />
        <mxCell id="1" parent="0" />
        <mxCell id="MY-0GuRKqusyicPiuqB_-1" value="[0,3]" style="rounded=0;whiteSpace=wrap;html=1;fillColor=#4D4D4D;strokeColor=#000000;fontColor=#ffffff;strokeWidth=1;" vertex="1" parent="1">
          <mxGeometry x="160" y="160" width="40" height="40" as="geometry" />
        </mxCell>
        <mxCell id="MY-0GuRKqusyicPiuqB_-2" value="[1,3]" style="rounded=0;whiteSpace=wrap;html=1;fillColor=#4D4D4D;strokeColor=#000000;fontColor=#ffffff;strokeWidth=1;" vertex="1" parent="1">
          <mxGeometry x="160" y="200" width="40" height="40" as="geometry" />
        </mxCell>
        <mxCell id="MY-0GuRKqusyicPiuqB_-3" value="[2,3]" style="rounded=0;whiteSpace=wrap;html=1;fillColor=#4D4D4D;strokeColor=#000000;fontColor=#ffffff;strokeWidth=1;" vertex="1" parent="1">
          <mxGeometry x="160" y="240" width="40" height="40" as="geometry" />
        </mxCell>
        <mxCell id="MY-0GuRKqusyicPiuqB_-4" value="[0,4]" style="rounded=0;whiteSpace=wrap;html=1;fillColor=#4D4D4D;strokeColor=#000000;fontColor=#ffffff;strokeWidth=1;" vertex="1" parent="1">
          <mxGeometry x="200" y="170" width="40" height="40" as="geometry" />
        </mxCell>
        <mxCell id="MY-0GuRKqusyicPiuqB_-5" value="[1,4]" style="rounded=0;whiteSpace=wrap;html=1;fillColor=#4D4D4D;strokeColor=#000000;fontColor=#ffffff;strokeWidth=1;" vertex="1" parent="1">
          <mxGeometry x="200" y="210" width="40" height="40" as="geometry" />
        </mxCell>
        <mxCell id="MY-0GuRKqusyicPiuqB_-6" value="[2,4]" style="rounded=0;whiteSpace=wrap;html=1;fillColor=#4D4D4D;strokeColor=#000000;fontColor=#ffffff;strokeWidth=1;" vertex="1" parent="1">
          <mxGeometry x="200" y="250" width="40" height="40" as="geometry" />
        </mxCell>
        <mxCell id="MY-0GuRKqusyicPiuqB_-7" value="[0,2]" style="rounded=0;whiteSpace=wrap;html=1;fillColor=#4D4D4D;strokeColor=#000000;fontColor=#ffffff;strokeWidth=1;" vertex="1" parent="1">
          <mxGeometry x="120" y="170" width="40" height="40" as="geometry" />
        </mxCell>
        <mxCell id="MY-0GuRKqusyicPiuqB_-8" value="[1,2]" style="rounded=0;whiteSpace=wrap;html=1;fillColor=#4D4D4D;strokeColor=#000000;fontColor=#ffffff;strokeWidth=1;" vertex="1" parent="1">
          <mxGeometry x="120" y="210" width="40" height="40" as="geometry" />
        </mxCell>
        <mxCell id="MY-0GuRKqusyicPiuqB_-9" value="[2,2]" style="rounded=0;whiteSpace=wrap;html=1;fillColor=#4D4D4D;strokeColor=#000000;fontColor=#ffffff;strokeWidth=1;" vertex="1" parent="1">
          <mxGeometry x="120" y="250" width="40" height="40" as="geometry" />
        </mxCell>
        <mxCell id="MY-0GuRKqusyicPiuqB_-10" value="[0,5]" style="rounded=0;whiteSpace=wrap;html=1;fillColor=#4D4D4D;strokeColor=#000000;fontColor=#ffffff;strokeWidth=1;" vertex="1" parent="1">
          <mxGeometry x="240" y="180" width="40" height="40" as="geometry" />
        </mxCell>
        <mxCell id="MY-0GuRKqusyicPiuqB_-11" value="[1,5]" style="rounded=0;whiteSpace=wrap;html=1;fillColor=#4D4D4D;strokeColor=#000000;fontColor=#ffffff;strokeWidth=1;" vertex="1" parent="1">
          <mxGeometry x="240" y="220" width="40" height="40" as="geometry" />
        </mxCell>
        <mxCell id="MY-0GuRKqusyicPiuqB_-12" value="[2,5]" style="rounded=0;whiteSpace=wrap;html=1;fillColor=#4D4D4D;strokeColor=#000000;fontColor=#ffffff;strokeWidth=1;" vertex="1" parent="1">
          <mxGeometry x="240" y="260" width="40" height="40" as="geometry" />
        </mxCell>
        <mxCell id="MY-0GuRKqusyicPiuqB_-13" value="[0,1]" style="rounded=0;whiteSpace=wrap;html=1;fillColor=#4D4D4D;strokeColor=#000000;fontColor=#ffffff;strokeWidth=1;" vertex="1" parent="1">
          <mxGeometry x="80" y="180" width="40" height="40" as="geometry" />
        </mxCell>
        <mxCell id="MY-0GuRKqusyicPiuqB_-14" value="[1,1]" style="rounded=0;whiteSpace=wrap;html=1;fillColor=#4D4D4D;strokeColor=#000000;fontColor=#ffffff;strokeWidth=1;" vertex="1" parent="1">
          <mxGeometry x="80" y="220" width="40" height="40" as="geometry" />
        </mxCell>
        <mxCell id="MY-0GuRKqusyicPiuqB_-15" value="[2,1]" style="rounded=0;whiteSpace=wrap;html=1;fillColor=#4D4D4D;strokeColor=#000000;fontColor=#ffffff;strokeWidth=1;" vertex="1" parent="1">
          <mxGeometry x="80" y="260" width="40" height="40" as="geometry" />
        </mxCell>
        <mxCell id="MY-0GuRKqusyicPiuqB_-16" value="[1,0]" style="rounded=0;whiteSpace=wrap;html=1;fillColor=#4D4D4D;strokeColor=#000000;fontColor=#ffffff;strokeWidth=1;" vertex="1" parent="1">
          <mxGeometry x="40" y="210" width="40" height="40" as="geometry" />
        </mxCell>
        <mxCell id="MY-0GuRKqusyicPiuqB_-17" value="[2,0]" style="rounded=0;whiteSpace=wrap;html=1;fillColor=#4D4D4D;strokeColor=#000000;fontColor=#ffffff;strokeWidth=1;" vertex="1" parent="1">
          <mxGeometry x="40" y="250" width="40" height="40" as="geometry" />
        </mxCell>
        <mxCell id="MY-0GuRKqusyicPiuqB_-18" value="[7,4]" style="rounded=0;whiteSpace=wrap;html=1;fillColor=#4D4D4D;strokeColor=#000000;fontColor=#ffffff;strokeWidth=1;" vertex="1" parent="1">
          <mxGeometry x="380" y="330" width="40" height="40" as="geometry" />
        </mxCell>
        <mxCell id="MY-0GuRKqusyicPiuqB_-19" value="[3,1]" style="rounded=0;whiteSpace=wrap;html=1;fillColor=#4D4D4D;strokeColor=#000000;fontColor=#ffffff;strokeWidth=1;" vertex="1" parent="1">
          <mxGeometry x="180" y="300" width="40" height="40" as="geometry" />
        </mxCell>
        <mxCell id="MY-0GuRKqusyicPiuqB_-20" value="[3,2]" style="rounded=0;whiteSpace=wrap;html=1;fillColor=#4D4D4D;strokeColor=#000000;fontColor=#ffffff;strokeWidth=1;" vertex="1" parent="1">
          <mxGeometry x="220" y="310" width="40" height="40" as="geometry" />
        </mxCell>
        <mxCell id="MY-0GuRKqusyicPiuqB_-21" value="[3,3]" style="rounded=0;whiteSpace=wrap;html=1;fillColor=#4D4D4D;strokeColor=#000000;fontColor=#ffffff;strokeWidth=1;" vertex="1" parent="1">
          <mxGeometry x="260" y="320" width="40" height="40" as="geometry" />
        </mxCell>
        <mxCell id="MY-0GuRKqusyicPiuqB_-22" value="[3,4]" style="rounded=0;whiteSpace=wrap;html=1;fillColor=#4D4D4D;strokeColor=#000000;fontColor=#ffffff;strokeWidth=1;" vertex="1" parent="1">
          <mxGeometry x="300" y="330" width="40" height="40" as="geometry" />
        </mxCell>
        <mxCell id="MY-0GuRKqusyicPiuqB_-23" value="[7,3]" style="rounded=0;whiteSpace=wrap;html=1;fillColor=#4D4D4D;strokeColor=#000000;fontColor=#ffffff;strokeWidth=1;" vertex="1" parent="1">
          <mxGeometry x="420" y="320" width="40" height="40" as="geometry" />
        </mxCell>
        <mxCell id="MY-0GuRKqusyicPiuqB_-24" value="[7,2]" style="rounded=0;whiteSpace=wrap;html=1;fillColor=#4D4D4D;strokeColor=#000000;fontColor=#ffffff;strokeWidth=1;" vertex="1" parent="1">
          <mxGeometry x="460" y="310" width="40" height="40" as="geometry" />
        </mxCell>
        <mxCell id="MY-0GuRKqusyicPiuqB_-25" value="[7,1]" style="rounded=0;whiteSpace=wrap;html=1;fillColor=#4D4D4D;strokeColor=#000000;fontColor=#ffffff;strokeWidth=1;" vertex="1" parent="1">
          <mxGeometry x="500" y="300" width="40" height="40" as="geometry" />
        </mxCell>
        <mxCell id="MY-0GuRKqusyicPiuqB_-26" value="[6,5]" style="rounded=0;whiteSpace=wrap;html=1;fillColor=#4D4D4D;strokeColor=#000000;fontColor=#ffffff;strokeWidth=1;" vertex="1" parent="1">
          <mxGeometry x="440" y="260" width="40" height="40" as="geometry" />
        </mxCell>
        <mxCell id="MY-0GuRKqusyicPiuqB_-27" value="[5,5]" style="rounded=0;whiteSpace=wrap;html=1;fillColor=#4D4D4D;strokeColor=#000000;fontColor=#ffffff;strokeWidth=1;" vertex="1" parent="1">
          <mxGeometry x="440" y="220" width="40" height="40" as="geometry" />
        </mxCell>
        <mxCell id="MY-0GuRKqusyicPiuqB_-28" value="[4,5]" style="rounded=0;whiteSpace=wrap;html=1;fillColor=#4D4D4D;strokeColor=#000000;fontColor=#ffffff;strokeWidth=1;" vertex="1" parent="1">
          <mxGeometry x="440" y="180" width="40" height="40" as="geometry" />
        </mxCell>
        <mxCell id="MY-0GuRKqusyicPiuqB_-29" value="[6,4]" style="rounded=0;whiteSpace=wrap;html=1;fillColor=#4D4D4D;strokeColor=#000000;fontColor=#ffffff;strokeWidth=1;" vertex="1" parent="1">
          <mxGeometry x="480" y="250" width="40" height="40" as="geometry" />
        </mxCell>
        <mxCell id="MY-0GuRKqusyicPiuqB_-30" value="[5,4]" style="rounded=0;whiteSpace=wrap;html=1;fillColor=#4D4D4D;strokeColor=#000000;fontColor=#ffffff;strokeWidth=1;" vertex="1" parent="1">
          <mxGeometry x="480" y="210" width="40" height="40" as="geometry" />
        </mxCell>
        <mxCell id="MY-0GuRKqusyicPiuqB_-31" value="[4,4]" style="rounded=0;whiteSpace=wrap;html=1;fillColor=#4D4D4D;strokeColor=#000000;fontColor=#ffffff;strokeWidth=1;" vertex="1" parent="1">
          <mxGeometry x="480" y="170" width="40" height="40" as="geometry" />
        </mxCell>
        <mxCell id="MY-0GuRKqusyicPiuqB_-32" value="[4,3]" style="rounded=0;whiteSpace=wrap;html=1;fillColor=#4D4D4D;strokeColor=#000000;fontColor=#ffffff;strokeWidth=1;" vertex="1" parent="1">
          <mxGeometry x="520" y="160" width="40" height="40" as="geometry" />
        </mxCell>
        <mxCell id="MY-0GuRKqusyicPiuqB_-33" value="[5,3]" style="rounded=0;whiteSpace=wrap;html=1;fillColor=#4D4D4D;strokeColor=#000000;fontColor=#ffffff;strokeWidth=1;" vertex="1" parent="1">
          <mxGeometry x="520" y="200" width="40" height="40" as="geometry" />
        </mxCell>
        <mxCell id="MY-0GuRKqusyicPiuqB_-34" value="[6,3]" style="rounded=0;whiteSpace=wrap;html=1;fillColor=#4D4D4D;strokeColor=#000000;fontColor=#ffffff;strokeWidth=1;" vertex="1" parent="1">
          <mxGeometry x="520" y="240" width="40" height="40" as="geometry" />
        </mxCell>
        <mxCell id="MY-0GuRKqusyicPiuqB_-35" value="[4,2]" style="rounded=0;whiteSpace=wrap;html=1;fillColor=#4D4D4D;strokeColor=#000000;fontColor=#ffffff;strokeWidth=1;" vertex="1" parent="1">
          <mxGeometry x="560" y="170" width="40" height="40" as="geometry" />
        </mxCell>
        <mxCell id="MY-0GuRKqusyicPiuqB_-36" value="[5,2]" style="rounded=0;whiteSpace=wrap;html=1;fillColor=#4D4D4D;strokeColor=#000000;fontColor=#ffffff;strokeWidth=1;" vertex="1" parent="1">
          <mxGeometry x="560" y="210" width="40" height="40" as="geometry" />
        </mxCell>
        <mxCell id="MY-0GuRKqusyicPiuqB_-37" value="[6,2]" style="rounded=0;whiteSpace=wrap;html=1;fillColor=#4D4D4D;strokeColor=#000000;fontColor=#ffffff;strokeWidth=1;" vertex="1" parent="1">
          <mxGeometry x="560" y="250" width="40" height="40" as="geometry" />
        </mxCell>
        <mxCell id="MY-0GuRKqusyicPiuqB_-38" value="[4,1]" style="rounded=0;whiteSpace=wrap;html=1;fillColor=#4D4D4D;strokeColor=#000000;fontColor=#ffffff;strokeWidth=1;" vertex="1" parent="1">
          <mxGeometry x="600" y="180" width="40" height="40" as="geometry" />
        </mxCell>
        <mxCell id="MY-0GuRKqusyicPiuqB_-39" value="[5,1]" style="rounded=0;whiteSpace=wrap;html=1;fillColor=#4D4D4D;strokeColor=#000000;fontColor=#ffffff;strokeWidth=1;" vertex="1" parent="1">
          <mxGeometry x="600" y="220" width="40" height="40" as="geometry" />
        </mxCell>
        <mxCell id="MY-0GuRKqusyicPiuqB_-40" value="[6,1]" style="rounded=0;whiteSpace=wrap;html=1;fillColor=#4D4D4D;strokeColor=#000000;fontColor=#ffffff;strokeWidth=1;" vertex="1" parent="1">
          <mxGeometry x="600" y="260" width="40" height="40" as="geometry" />
        </mxCell>
        <mxCell id="MY-0GuRKqusyicPiuqB_-41" value="[5,0]" style="rounded=0;whiteSpace=wrap;html=1;fillColor=#4D4D4D;strokeColor=#000000;fontColor=#ffffff;strokeWidth=1;" vertex="1" parent="1">
          <mxGeometry x="640" y="210" width="40" height="40" as="geometry" />
        </mxCell>
        <mxCell id="MY-0GuRKqusyicPiuqB_-42" value="[6,0]" style="rounded=0;whiteSpace=wrap;html=1;fillColor=#4D4D4D;strokeColor=#000000;fontColor=#ffffff;strokeWidth=1;" vertex="1" parent="1">
          <mxGeometry x="640" y="250" width="40" height="40" as="geometry" />
        </mxCell>
        <mxCell id="MY-0GuRKqusyicPiuqB_-43" value="[3,5]" style="ellipse;whiteSpace=wrap;html=1;fillColor=#4D4D4D;strokeColor=#000000;fontColor=#ffffff;strokeWidth=1;" vertex="1" parent="1">
          <mxGeometry x="290" y="250" width="60" height="60" as="geometry" />
        </mxCell>
        <mxCell id="MY-0GuRKqusyicPiuqB_-45" value="[7,5]" style="ellipse;whiteSpace=wrap;html=1;fillColor=#4D4D4D;strokeColor=#000000;fontColor=#ffffff;strokeWidth=1;" vertex="1" parent="1">
          <mxGeometry x="370" y="250" width="60" height="60" as="geometry" />
        </mxCell>
        <mxCell id="MY-0GuRKqusyicPiuqB_-50" value="" style="endArrow=none;html=1;rounded=0;fillColor=#647687;strokeColor=#000000;strokeWidth=2;" edge="1" parent="1">
          <mxGeometry width="50" height="50" relative="1" as="geometry">
            <mxPoint x="300" y="229.85999999999999" as="sourcePoint" />
            <mxPoint x="310" y="229.85999999999999" as="targetPoint" />
          </mxGeometry>
        </mxCell>
        <mxCell id="MY-0GuRKqusyicPiuqB_-51" value="" style="endArrow=none;html=1;rounded=0;fillColor=#647687;strokeColor=#000000;strokeWidth=2;" edge="1" parent="1">
          <mxGeometry width="50" height="50" relative="1" as="geometry">
            <mxPoint x="310" y="229.85999999999999" as="sourcePoint" />
            <mxPoint x="310" y="209.85999999999999" as="targetPoint" />
          </mxGeometry>
        </mxCell>
        <mxCell id="MY-0GuRKqusyicPiuqB_-52" value="" style="endArrow=none;html=1;rounded=0;fillColor=#647687;strokeColor=#000000;strokeWidth=2;" edge="1" parent="1">
          <mxGeometry width="50" height="50" relative="1" as="geometry">
            <mxPoint x="310" y="209.85999999999999" as="sourcePoint" />
            <mxPoint x="330" y="229.85999999999999" as="targetPoint" />
            <Array as="points">
              <mxPoint x="320" y="209.85999999999999" />
              <mxPoint x="320" y="229.85999999999999" />
            </Array>
          </mxGeometry>
        </mxCell>
        <mxCell id="MY-0GuRKqusyicPiuqB_-53" value="" style="endArrow=none;html=1;rounded=0;fillColor=#647687;strokeColor=#000000;strokeWidth=2;" edge="1" parent="1">
          <mxGeometry width="50" height="50" relative="1" as="geometry">
            <mxPoint x="330" y="229.85999999999999" as="sourcePoint" />
            <mxPoint x="330" y="209.85999999999999" as="targetPoint" />
          </mxGeometry>
        </mxCell>
        <mxCell id="MY-0GuRKqusyicPiuqB_-54" value="" style="endArrow=none;html=1;rounded=0;fillColor=#647687;strokeColor=#000000;strokeWidth=2;" edge="1" parent="1">
          <mxGeometry width="50" height="50" relative="1" as="geometry">
            <mxPoint x="330" y="209.85999999999999" as="sourcePoint" />
            <mxPoint x="350" y="229.85999999999999" as="targetPoint" />
            <Array as="points">
              <mxPoint x="340" y="209.85999999999999" />
              <mxPoint x="340" y="229.85999999999999" />
            </Array>
          </mxGeometry>
        </mxCell>
        <mxCell id="MY-0GuRKqusyicPiuqB_-55" value="" style="endArrow=none;html=1;rounded=0;fillColor=#647687;strokeColor=#000000;strokeWidth=2;" edge="1" parent="1">
          <mxGeometry width="50" height="50" relative="1" as="geometry">
            <mxPoint x="350" y="229.85999999999999" as="sourcePoint" />
            <mxPoint x="350" y="209.85999999999999" as="targetPoint" />
          </mxGeometry>
        </mxCell>
        <mxCell id="MY-0GuRKqusyicPiuqB_-56" value="" style="endArrow=none;html=1;rounded=0;fillColor=#647687;strokeColor=#000000;strokeWidth=2;" edge="1" parent="1">
          <mxGeometry width="50" height="50" relative="1" as="geometry">
            <mxPoint x="350" y="209.85999999999999" as="sourcePoint" />
            <mxPoint x="370" y="229.85999999999999" as="targetPoint" />
            <Array as="points">
              <mxPoint x="360" y="209.85999999999999" />
              <mxPoint x="360" y="229.85999999999999" />
            </Array>
          </mxGeometry>
        </mxCell>
        <mxCell id="MY-0GuRKqusyicPiuqB_-57" value="" style="endArrow=none;html=1;rounded=0;fillColor=#647687;strokeColor=#000000;strokeWidth=2;" edge="1" parent="1">
          <mxGeometry width="50" height="50" relative="1" as="geometry">
            <mxPoint x="370" y="229.85999999999999" as="sourcePoint" />
            <mxPoint x="370" y="209.85999999999999" as="targetPoint" />
          </mxGeometry>
        </mxCell>
        <mxCell id="MY-0GuRKqusyicPiuqB_-58" value="" style="endArrow=none;html=1;rounded=0;fillColor=#647687;strokeColor=#000000;strokeWidth=2;" edge="1" parent="1">
          <mxGeometry width="50" height="50" relative="1" as="geometry">
            <mxPoint x="370" y="209.85999999999999" as="sourcePoint" />
            <mxPoint x="390" y="229.85999999999999" as="targetPoint" />
            <Array as="points">
              <mxPoint x="380" y="209.85999999999999" />
              <mxPoint x="380" y="229.85999999999999" />
            </Array>
          </mxGeometry>
        </mxCell>
        <mxCell id="MY-0GuRKqusyicPiuqB_-59" value="" style="endArrow=none;html=1;rounded=0;fillColor=#647687;strokeColor=#000000;strokeWidth=2;" edge="1" parent="1">
          <mxGeometry width="50" height="50" relative="1" as="geometry">
            <mxPoint x="390" y="229.85999999999999" as="sourcePoint" />
            <mxPoint x="390" y="209.85999999999999" as="targetPoint" />
          </mxGeometry>
        </mxCell>
        <mxCell id="MY-0GuRKqusyicPiuqB_-60" value="" style="endArrow=none;html=1;rounded=0;fillColor=#647687;strokeColor=#000000;strokeWidth=2;" edge="1" parent="1">
          <mxGeometry width="50" height="50" relative="1" as="geometry">
            <mxPoint x="390" y="209.85999999999999" as="sourcePoint" />
            <mxPoint x="410" y="229.85999999999999" as="targetPoint" />
            <Array as="points">
              <mxPoint x="400" y="209.85999999999999" />
              <mxPoint x="400" y="229.85999999999999" />
            </Array>
          </mxGeometry>
        </mxCell>
        <mxCell id="MY-0GuRKqusyicPiuqB_-61" value="" style="endArrow=none;html=1;rounded=0;fillColor=#647687;strokeColor=#000000;strokeWidth=2;" edge="1" parent="1">
          <mxGeometry width="50" height="50" relative="1" as="geometry">
            <mxPoint x="300" y="230" as="sourcePoint" />
            <mxPoint x="300" y="210" as="targetPoint" />
          </mxGeometry>
        </mxCell>
        <mxCell id="MY-0GuRKqusyicPiuqB_-62" value="" style="endArrow=none;html=1;rounded=0;entryX=0;entryY=1;entryDx=0;entryDy=0;fillColor=#647687;strokeColor=#000000;strokeWidth=2;" edge="1" parent="1" target="MY-0GuRKqusyicPiuqB_-28">
          <mxGeometry width="50" height="50" relative="1" as="geometry">
            <mxPoint x="409.72" y="230" as="sourcePoint" />
            <mxPoint x="420" y="210" as="targetPoint" />
            <Array as="points">
              <mxPoint x="410" y="210" />
              <mxPoint x="420" y="210" />
              <mxPoint x="420" y="220" />
              <mxPoint x="420" y="230" />
              <mxPoint x="430" y="230" />
              <mxPoint x="430" y="220" />
            </Array>
          </mxGeometry>
        </mxCell>
        <mxCell id="MY-0GuRKqusyicPiuqB_-64" value="" style="endArrow=none;html=1;rounded=0;exitX=1;exitY=0;exitDx=0;exitDy=0;fillColor=#647687;strokeColor=#000000;strokeWidth=2;" edge="1" parent="1" source="MY-0GuRKqusyicPiuqB_-11">
          <mxGeometry width="50" height="50" relative="1" as="geometry">
            <mxPoint x="310" y="239.85999999999999" as="sourcePoint" />
            <mxPoint x="300" y="210" as="targetPoint" />
            <Array as="points">
              <mxPoint x="290" y="220" />
              <mxPoint x="290" y="210" />
            </Array>
          </mxGeometry>
        </mxCell>
      </root>
    </mxGraphModel>
  </diagram>
</mxfile>
